name rise36.2859peak64.2979fall75.1499.mot
datacolumns 19
datarows 17
range 11.77996200000000 11.80662600000000
endheader
time	ground_force1_vx	ground_force1_vy	ground_force1_vz	ground_force1_px	ground_force1_py	ground_force1_pz	ground_force2_vx	ground_force2_vy	ground_force2_vz	ground_force2_px	ground_force2_py	ground_force2_pz	ground_torque1_x	ground_torque1_y	ground_torque1_z	ground_torque2_x	ground_torque2_y	ground_torque2_z	
11.77996200000000	-37.63713200000000	802.44546800000001	61.56306000000000	0.20884300000000	0.00000000000000	0.09249000000000	-7.11698600000000	40.57716100000000	3.41688700000000	0.38889200000000	0.00000000000000	-0.10376100000000	0.00000000000000	34.24959800000000	0.00000000000000	0.00000000000000	1.65291800000000	0.00000000000000	
11.78162500000000	-37.94812000000000	800.53065400000003	61.39535600000000	0.20793600000000	0.00000000000000	0.09246200000000	-7.91316200000000	47.19688500000000	3.86165000000000	0.39411000000000	0.00000000000000	-0.10403200000000	0.00000000000000	34.06772400000000	0.00000000000000	0.00000000000000	1.91642000000000	0.00000000000000	
11.78328900000000	-38.26758100000000	798.50416900000005	61.19977600000000	0.20702900000000	0.00000000000000	0.09243100000000	-8.60269300000000	53.80595800000000	4.27160500000000	0.39892500000000	0.00000000000000	-0.10428200000000	0.00000000000000	33.87756600000000	0.00000000000000	0.00000000000000	2.17385600000000	0.00000000000000	
11.78496000000000	-38.59622000000000	796.36562700000002	60.97606800000000	0.20612200000000	0.00000000000000	0.09239500000000	-9.16593800000000	60.31224700000000	4.63722500000000	0.40338700000000	0.00000000000000	-0.10451200000000	0.00000000000000	33.67935500000000	0.00000000000000	0.00000000000000	2.41997400000000	0.00000000000000	
11.78662500000000	-38.93470400000000	794.11464300000000	60.72404100000000	0.20521600000000	0.00000000000000	0.09235400000000	-9.59024500000000	66.64865600000000	4.95181700000000	0.40754100000000	0.00000000000000	-0.10472700000000	0.00000000000000	33.47333600000000	0.00000000000000	0.00000000000000	2.65065600000000	0.00000000000000	
11.78828800000000	-39.28365100000000	791.75083299999994	60.44356500000000	0.20431000000000	0.00000000000000	0.09230900000000	-9.86996800000000	72.77487700000000	5.21159800000000	0.41142200000000	0.00000000000000	-0.10492700000000	0.00000000000000	33.25976600000000	0.00000000000000	0.00000000000000	2.86303300000000	0.00000000000000	
11.78996200000000	-39.64363300000000	789.27380700000003	60.13457400000000	0.20340700000000	0.00000000000000	0.09225900000000	-10.00589800000000	78.67665000000000	5.41551800000000	0.41506200000000	0.00000000000000	-0.10511500000000	0.00000000000000	33.03891100000000	0.00000000000000	0.00000000000000	3.05548500000000	0.00000000000000	
11.79161700000000	-40.01516800000000	786.68316300000004	59.79706300000000	0.20250400000000	0.00000000000000	0.09220500000000	-10.00428000000000	84.36300100000000	5.56489200000000	0.41848500000000	0.00000000000000	-0.10529200000000	0.00000000000000	32.81105100000000	0.00000000000000	0.00000000000000	3.22752600000000	0.00000000000000	
11.79329200000000	-40.39871600000000	783.97848499999998	59.43109200000000	0.20160400000000	0.00000000000000	0.09214600000000	-9.87553800000000	89.86204499999999	5.66290100000000	0.42171500000000	0.00000000000000	-0.10545900000000	0.00000000000000	32.57647200000000	0.00000000000000	0.00000000000000	3.37962400000000	0.00000000000000	
11.79495800000000	-40.79467600000000	781.15933600000005	59.03678200000000	0.20070700000000	0.00000000000000	0.09208100000000	-9.63289500000000	95.21593799999999	5.71402700000000	0.42477200000000	0.00000000000000	-0.10561800000000	0.00000000000000	32.33546700000000	0.00000000000000	0.00000000000000	3.51296200000000	0.00000000000000	
11.79662400000000	-41.20338200000000	778.22525700000006	58.61431800000000	0.19981200000000	0.00000000000000	0.09201200000000	-9.29100000000000	100.47555699999999	5.72348500000000	0.42767000000000	0.00000000000000	-0.10577000000000	0.00000000000000	32.08833600000000	0.00000000000000	0.00000000000000	3.62919400000000	0.00000000000000	
11.79828600000000	-41.62509900000000	775.17576199999996	58.16394600000000	0.19892000000000	0.00000000000000	0.09193800000000	-8.86467500000000	105.69538000000000	5.69668400000000	0.43042600000000	0.00000000000000	-0.10591400000000	0.00000000000000	31.83538300000000	0.00000000000000	0.00000000000000	3.73018800000000	0.00000000000000	
11.79996700000000	-42.06002100000000	772.01033399999994	57.68597500000000	0.19803300000000	0.00000000000000	0.09185900000000	-8.36787100000000	110.92894200000001	5.63878100000000	0.43305200000000	0.00000000000000	-0.10605200000000	0.00000000000000	31.57691400000000	0.00000000000000	0.00000000000000	3.81781100000000	0.00000000000000	
11.80162500000000	-42.50826600000000	768.72842200000002	57.18077300000000	0.19714900000000	0.00000000000000	0.09177500000000	-7.81287100000000	116.22512700000000	5.55431800000000	0.43555900000000	0.00000000000000	-0.10618500000000	0.00000000000000	31.31323800000000	0.00000000000000	0.00000000000000	3.89373800000000	0.00000000000000	
11.80328400000000	-42.96987100000000	765.32944399999997	56.64876900000000	0.19627100000000	0.00000000000000	0.09168600000000	-7.20975800000000	121.62542800000000	5.44697800000000	0.43795600000000	0.00000000000000	-0.10631200000000	0.00000000000000	31.04466300000000	0.00000000000000	0.00000000000000	3.95932000000000	0.00000000000000	
11.80495800000000	-43.44479500000000	761.81277599999999	56.09044900000000	0.19539700000000	0.00000000000000	0.09159200000000	-6.56615000000000	127.16222700000000	5.31945100000000	0.44025200000000	0.00000000000000	-0.10643500000000	0.00000000000000	30.77149400000000	0.00000000000000	0.00000000000000	4.01549000000000	0.00000000000000	
11.80662600000000	-43.93290900000000	758.17776000000003	55.50635700000000	0.19453000000000	0.00000000000000	0.09149200000000	-5.88716400000000	132.85802500000000	5.17339000000000	0.44245500000000	0.00000000000000	-0.10655400000000	0.00000000000000	30.49403600000000	0.00000000000000	0.00000000000000	4.06272600000000	0.00000000000000	
